<?xml version="1.0" encoding="utf-8"?>
<!-- Generator: Adobe Illustrator 18.0.0, SVG Export Plug-In . SVG Version: 6.00 Build 0)  -->
<!DOCTYPE svg PUBLIC "-//W3C//DTD SVG 1.1//EN" "http://www.w3.org/Graphics/SVG/1.1/DTD/svg11.dtd">
<svg version="1.1" id="Layer_1" xmlns="http://www.w3.org/2000/svg" xmlns:xlink="http://www.w3.org/1999/xlink" x="0px" y="0px"
	 viewBox="0 0 612 792" enable-background="new 0 0 612 792" xml:space="preserve">
<g display="none">
	<path display="inline" fill="#39B54A" d="M189.7,254.1c0,2-1.7,3.7-3.7,3.7h-84.9c-2,0-3.7-1.7-3.7-3.7v-84.9c0-2,1.7-3.7,3.7-3.7
		H186c2,0,3.7,1.7,3.7,3.7V254.1z"/>
	<path display="inline" fill="#6FC067" d="M143.6,165.5h-42.4c-2,0-3.7,1.7-3.7,3.7v84.9c0,2,1.7,3.7,3.7,3.7h42.4V165.5
		L143.6,165.5z"/>
</g>
<g display="none">
	<path display="inline" fill="#39B54A" d="M437.1,204.1c0,4.2-3.4,7.5-7.5,7.5H256.5c-4.2,0-7.5-3.4-7.5-7.5V78.1
		c0-4.2,3.4-7.5,7.5-7.5h173.1c4.2,0,7.5,3.4,7.5,7.5V204.1z"/>
	<path display="inline" fill="#6FC067" d="M306,70.6h-49.5c-4.2,0-7.5,3.4-7.5,7.5v126.1c0,4.2,3.4,7.5,7.5,7.5H306V70.6z"/>
	<path display="inline" fill="#6FC067" d="M380.1,70.6h49.5c4.2,0,7.5,3.4,7.5,7.5v126.1c0,4.2-3.4,7.5-7.5,7.5h-49.5V70.6z"/>
</g>
<circle fill="#D4D0B3" cx="305.6" cy="395.7" r="211.7"/>
<path fill="#DEDBC3" d="M306.4,184v423.3c116.5-0.4,210.9-95,210.9-211.7C517.3,279,423,184.4,306.4,184L306.4,184z"/>
<path fill="#57BD84" d="M490.7,497.8c-47.6-12.2-106.6-19.4-170.6-19.4c-76.9,0-146.6,10.4-198,27.4c36.9,62,104.6,103.6,182,103.6
	C384.8,609.4,455,564.2,490.7,497.8L490.7,497.8z"/>
<path fill="#67C18C" d="M320.1,478.3c-5.1,0-10.2,0-15.2,0.1v130.9c2,0,3.9,0,5.9-0.1c0.9,0,1.8-0.1,2.8-0.1
	c1.3-0.1,2.6-0.1,3.9-0.2c1-0.1,1.9-0.1,2.8-0.2c1.5-0.1,3.1-0.3,4.6-0.4c1.1-0.1,2.2-0.2,3.3-0.4c1.5-0.2,3-0.3,4.4-0.5
	c0.9-0.1,1.9-0.3,2.8-0.4c1.3-0.2,2.6-0.4,3.8-0.6c0.9-0.1,1.7-0.3,2.6-0.4c1.9-0.3,3.9-0.7,5.8-1.1c0.8-0.2,1.6-0.4,2.4-0.5
	c1.3-0.3,2.6-0.6,3.9-0.9c0.9-0.2,1.7-0.4,2.6-0.6c1.4-0.4,2.8-0.7,4.1-1.1c0.7-0.2,1.4-0.4,2.1-0.6c1.9-0.5,3.7-1.1,5.5-1.7
	c0.8-0.3,1.6-0.5,2.4-0.8c1.3-0.4,2.5-0.9,3.8-1.3c0.8-0.3,1.5-0.5,2.3-0.8c1.9-0.7,3.7-1.4,5.5-2.1c0.5-0.2,1.1-0.4,1.6-0.7
	c1.4-0.6,2.8-1.2,4.2-1.8c0.7-0.3,1.4-0.6,2.2-0.9c1.4-0.6,2.7-1.2,4-1.9c0.6-0.3,1.1-0.5,1.7-0.8c1.8-0.9,3.6-1.8,5.4-2.7
	c0.6-0.3,1.1-0.6,1.7-0.9c1.3-0.7,2.7-1.4,4-2.2c0.6-0.3,1.2-0.7,1.8-1c1.7-1,3.4-2,5.1-3c0.2-0.1,0.3-0.2,0.5-0.3
	c1.7-1.1,3.4-2.1,5.1-3.2c0.5-0.3,1-0.7,1.5-1c1.4-0.9,2.7-1.8,4-2.8c0.4-0.3,0.8-0.6,1.3-0.9c1.7-1.2,3.4-2.5,5.1-3.7
	c0.3-0.2,0.6-0.4,0.8-0.6c1.4-1.1,2.8-2.2,4.2-3.3c0.4-0.3,0.8-0.7,1.2-1c1.5-1.3,3.1-2.5,4.6-3.8c0.1-0.1,0.2-0.2,0.3-0.3
	c1.6-1.4,3.2-2.9,4.8-4.3c0.3-0.3,0.6-0.6,0.9-0.8c1.3-1.3,2.7-2.5,4-3.8c0.3-0.3,0.6-0.5,0.8-0.8c3.1-3.1,6.1-6.2,9-9.5
	c0.3-0.3,0.5-0.6,0.7-0.8c1.4-1.5,2.7-3.1,4-4.7c0.1-0.1,0.1-0.2,0.2-0.3c1.4-1.7,2.9-3.5,4.2-5.3c0.1-0.1,0.2-0.3,0.3-0.4
	c1.3-1.6,2.5-3.3,3.7-4.9c0.2-0.2,0.3-0.5,0.5-0.7c2.6-3.6,5.1-7.3,7.5-11.1c0.1-0.2,0.3-0.4,0.4-0.6c1.1-1.8,2.2-3.6,3.3-5.4
	c0.1-0.1,0.1-0.2,0.2-0.3c1.2-2,2.3-4,3.4-6.1C443.1,485.6,384.1,478.3,320.1,478.3L320.1,478.3z"/>
<path fill="#F04E3E" d="M307.9,234.3c-57.5,0-104.1,46.6-104.1,104.1c0,57.5,83.9,205.4,104.1,205.4c23.1,0,104.1-147.9,104.1-205.4
	C412.1,281,365.5,234.3,307.9,234.3z M307.9,389.1c-28.8,0-52.1-23.3-52.1-52.1c0-28.8,23.3-52.1,52.1-52.1
	c28.8,0,52.1,23.3,52.1,52.1C360,365.8,336.7,389.1,307.9,389.1z"/>
<path fill="#F15B47" d="M360,337c0,28.8-23.3,52.1-52.1,52.1v154.8c23.1,0,104.1-147.9,104.1-205.4c0-57.5-46.6-104.1-104.1-104.1
	V285C336.7,285,360,308.3,360,337L360,337z"/>
</svg>
